<svg version="1.1" id="Layer_1" xmlns="http://www.w3.org/2000/svg" xmlns:xlink="http://www.w3.org/1999/xlink" x="0px" y="0px"
	 width="100%" viewBox="0 0 378 378" enable-background="new 0 0 378 378" xml:space="preserve">
<path fill="#013377" opacity="1.000000" stroke="none" 
	d="
M1.000000,138.000000 
	C1.000000,92.000008 1.000000,46.500015 1.000000,1.000018 
	C126.999969,1.000012 252.999939,1.000012 378.999939,1.000006 
	C378.999939,126.999947 378.999939,252.999893 378.999969,378.999878 
	C253.000076,378.999939 127.000153,378.999939 1.000114,378.999969 
	C1.000000,298.833344 1.000000,218.666672 1.000000,138.000000 
M307.427795,197.560349 
	C294.765106,197.560364 282.094604,197.815582 269.443695,197.429565 
	C264.664551,197.283722 261.423035,199.490601 258.592743,202.435852 
	C257.563293,203.507050 257.365082,206.670547 258.195435,208.000504 
	C261.046204,212.566544 264.001282,217.506699 271.859863,215.566559 
	C268.121613,228.564041 264.828613,240.222031 261.327454,251.817184 
	C261.025848,252.816055 259.353394,254.062286 258.305054,254.074112 
	C244.829559,254.226318 231.351761,254.174713 216.730377,254.174713 
	C220.633881,242.359177 224.080383,231.122711 228.213394,220.144714 
	C228.973572,218.125565 232.436996,217.005508 234.795624,215.736069 
	C237.927826,214.050278 241.427246,212.947708 244.299316,210.927124 
	C245.424484,210.135529 246.213791,206.985016 245.548477,205.856827 
	C242.718811,201.058350 239.843750,196.007462 232.597916,197.458893 
	C229.554352,198.068542 226.286896,197.560181 223.121216,197.560394 
	C212.791107,197.561096 202.425598,197.079803 192.150848,197.834381 
	C188.732788,198.085403 185.102554,201.075211 182.521896,203.736618 
	C181.728119,204.555252 184.064011,208.449036 185.019241,210.914398 
	C186.848297,215.635010 191.146683,215.826309 195.648270,216.073151 
	C195.255325,218.564667 195.151138,220.728775 194.559601,222.750275 
	C185.783783,252.740479 176.898300,282.698669 168.160049,312.699738 
	C166.596588,318.067505 164.155563,321.510681 157.811783,321.206665 
	C154.168533,321.032104 148.470398,326.436005 148.504715,329.046021 
	C148.550156,332.504395 155.468384,339.072784 159.102493,339.075104 
	C172.598267,339.083679 186.102585,338.805298 199.585220,339.226227 
	C204.324600,339.374146 207.459305,337.377594 210.577499,334.589569 
	C212.726578,332.668091 213.069290,330.641113 211.357498,328.023834 
	C208.372559,323.459930 204.985275,319.732208 197.896805,320.378174 
	C202.481567,304.574890 206.756439,289.839813 210.955154,275.367218 
	C225.968536,275.367218 240.224472,275.367218 254.974655,275.367218 
	C251.249496,287.800964 247.566971,299.862122 244.039688,311.968536 
	C242.424698,317.511566 240.178452,321.649261 233.199371,321.249420 
	C229.537567,321.039612 223.838364,326.878479 224.142639,329.346466 
	C224.569336,332.807343 231.272278,339.072052 234.595917,339.074280 
	C248.924774,339.083923 263.270142,339.445892 277.570221,338.804474 
	C280.905884,338.654877 284.571228,335.526825 287.072388,332.830078 
	C287.921509,331.914581 285.630219,328.117401 284.817230,325.622925 
	C283.142914,320.485504 278.097473,321.192383 274.109009,319.966370 
	C274.329254,318.742920 274.404724,317.930847 274.624573,317.159973 
	C280.276459,297.339600 285.880859,277.505371 291.631653,257.713654 
	C294.969696,246.225601 298.471893,234.783447 302.061279,223.371292 
	C303.182678,219.805939 305.161621,217.012650 309.255798,215.801773 
	C314.051758,214.383347 318.616028,212.181503 323.620667,210.183792 
	C327.062012,219.857483 336.581848,214.562851 344.035706,216.278549 
	C343.654358,217.921173 343.363373,219.523834 342.909485,221.078949 
	C330.800690,262.566437 318.685150,304.052002 306.545624,345.530518 
	C303.351196,356.445190 303.312714,356.491974 291.780121,356.407715 
	C286.613159,356.369965 281.126251,355.622681 277.555176,360.318604 
	C275.809143,362.614624 273.572144,366.747101 274.498474,368.408234 
	C276.462280,371.929779 277.707336,377.276703 283.390381,377.311676 
	C294.886353,377.382416 306.383331,377.376923 317.879364,377.310303 
	C322.144379,377.285583 326.950745,373.575439 328.177460,369.404572 
	C344.077118,315.344513 359.958282,261.279022 375.807037,207.204056 
	C377.262177,202.239197 371.553284,194.786942 366.354126,194.763535 
	C356.190857,194.717773 346.018372,195.008545 335.866638,194.662750 
	C328.434937,194.409637 323.792145,197.564545 321.143005,205.254608 
	C318.344543,199.494354 314.610291,196.173355 307.427795,197.560349 
M224.809464,20.492777 
	C220.732361,16.082296 216.999710,16.898123 210.856064,23.230848 
	C203.158936,21.460981 195.823578,18.848637 188.318146,18.198069 
	C137.921539,13.829698 94.585403,50.555580 90.585251,101.046684 
	C88.502022,127.341805 103.503815,156.838959 136.492249,163.402008 
	C155.441010,167.171844 173.534302,164.531708 191.123550,156.918488 
	C195.762299,154.910706 198.568115,151.727661 199.954361,146.911041 
	C203.448730,134.769547 207.243271,122.713287 210.641602,110.545815 
	C212.167038,105.084183 214.751404,101.809814 220.973206,101.886337 
	C224.802750,101.933449 230.389328,96.148781 230.116898,93.334244 
	C229.777161,89.824211 223.132278,83.878876 219.499115,83.876465 
	C204.500824,83.866524 189.498352,84.070099 174.506699,83.754951 
	C169.847305,83.657013 167.011642,86.229301 164.250931,88.931808 
	C163.275864,89.886330 163.086029,92.901833 163.862015,94.158905 
	C166.589340,98.577240 169.204132,103.611176 176.024765,102.173073 
	C177.159866,101.933739 178.513947,102.732994 179.759064,103.050323 
	C179.833008,103.804276 180.022797,104.320938 179.905914,104.755013 
	C176.880432,115.990601 173.886810,127.235939 170.672577,138.417755 
	C170.350647,139.537674 168.797455,140.738968 167.577820,141.100922 
	C145.923203,147.527039 130.230774,140.717468 126.053192,118.067230 
	C121.495590,93.356606 128.912308,71.563522 145.801071,53.198689 
	C156.827942,41.208054 170.821869,36.547935 186.988632,39.030914 
	C197.388702,40.628212 204.160889,48.057419 202.684174,57.790554 
	C201.755066,63.914413 204.772446,67.153145 208.248627,70.613472 
	C209.217804,71.578224 211.615204,72.363899 212.600632,71.831367 
	C216.170273,69.902267 219.888428,67.960342 220.924118,63.291103 
	C223.156860,53.225136 225.341492,43.134068 228.083099,33.201576 
	C229.421799,28.351629 229.019180,24.497843 224.809464,20.492777 
M356.585175,71.775841 
	C348.092285,70.171593 339.636261,68.314713 331.091064,67.069206 
	C326.790894,66.442429 324.549255,64.648689 323.119659,60.517178 
	C320.243591,52.205338 316.855988,44.065792 313.525055,35.918266 
	C312.106873,32.449295 310.100891,29.253120 305.767120,29.096781 
	C301.606018,28.946669 298.971344,31.465708 297.099609,34.839077 
	C292.826080,42.541237 288.309082,50.135178 284.549225,58.084408 
	C282.603790,62.197456 280.065796,63.529446 275.807373,63.646564 
	C267.323578,63.879898 258.846069,64.474075 250.377899,65.084755 
	C246.525253,65.362587 242.626236,65.969902 240.762177,70.116676 
	C238.798431,74.485191 240.900620,77.878922 243.729416,80.915535 
	C249.970505,87.615112 256.185822,94.347031 262.663361,100.813606 
	C265.011627,103.157906 265.337769,105.260345 264.479553,108.318123 
	C262.010986,117.113449 259.849396,125.995354 257.599243,134.851379 
	C256.665192,138.527512 256.308197,142.173508 259.577423,144.995605 
	C262.945374,147.902939 266.654236,147.387451 270.324677,145.664734 
	C278.596222,141.782440 286.944946,138.041046 295.037598,133.812408 
	C298.333038,132.090469 300.585327,132.428925 303.539917,134.428696 
	C311.110565,139.552811 318.909637,144.343292 326.677216,149.170868 
	C329.898926,151.173141 333.376801,152.425049 336.935822,149.970886 
	C340.368439,147.603897 340.942871,144.062729 340.454163,140.210892 
	C339.260681,130.804184 338.222351,121.373337 336.773376,112.006065 
	C336.315887,109.048317 337.251801,107.460106 339.409515,105.736938 
	C346.692230,99.920837 354.000183,94.114281 360.966888,87.930473 
	C368.460480,81.278984 366.905090,74.965141 356.585175,71.775841 
M44.030022,50.514999 
	C30.675394,96.115776 17.315762,141.715088 3.972637,187.319229 
	C2.351998,192.858261 7.853231,200.305939 13.586136,200.325912 
	C23.910759,200.361862 34.240597,200.151077 44.557823,200.429733 
	C48.543549,200.537369 52.071892,199.668808 54.311485,196.666748 
	C56.142216,194.212723 57.737442,190.912338 57.773678,187.966721 
	C57.815308,184.583405 51.146671,179.158768 48.341667,179.133087 
	C44.120476,179.094421 39.898666,179.123001 35.272301,179.123001 
	C35.793182,177.057739 36.072548,175.773376 36.440937,174.515045 
	C48.484615,133.376480 60.523895,92.236595 72.607895,51.109859 
	C73.813202,47.007721 74.155464,41.423161 76.972099,39.365883 
	C79.839066,37.271832 85.274025,38.516953 89.577339,38.615170 
	C93.981827,38.715694 98.528435,38.971725 101.454300,35.108616 
	C103.303650,32.666862 105.287758,29.475018 105.237694,26.654648 
	C105.169502,22.813097 98.642906,17.678066 95.439186,17.672052 
	C84.448364,17.651423 73.457397,17.638773 62.466656,17.675756 
	C57.333500,17.693029 52.576637,21.340015 51.106644,26.296963 
	C48.792072,34.101933 46.506859,41.915604 44.030022,50.514999 
M103.976852,285.907166 
	C97.221710,279.796936 92.938744,273.023041 97.986519,263.718719 
	C98.132240,263.450104 98.068909,263.064789 98.091370,262.733124 
	C98.507324,256.590912 93.187523,251.775284 87.909103,254.680389 
	C79.544083,259.284271 72.783813,259.134827 65.194412,253.055481 
	C60.851078,249.576324 55.208817,252.566360 54.105980,257.898987 
	C53.711243,259.807678 53.549812,262.028381 54.135422,263.829132 
	C56.343483,270.618835 53.925613,275.206573 47.954567,278.412720 
	C47.667480,278.566895 47.435425,278.826294 47.184319,279.044250 
	C44.494698,281.379028 41.861450,283.775208 42.996735,287.883698 
	C44.090218,291.840973 46.901318,294.429932 50.824883,294.451965 
	C59.196110,294.499084 62.838116,299.061432 65.076546,306.487488 
	C65.851814,309.059509 69.074417,311.890106 71.739304,312.657471 
	C75.524879,313.747589 79.021904,311.188171 80.367386,307.466583 
	C83.134056,299.813995 88.114220,297.263214 96.208733,297.705750 
	C103.582901,298.108887 105.964188,294.032959 103.976852,285.907166 
M218.551834,177.180588 
	C219.823090,177.544327 221.073990,178.022598 222.369003,178.252716 
	C229.338196,179.491028 236.328079,176.195358 239.729996,170.133041 
	C243.236038,163.885223 242.302155,155.959732 237.432571,150.635040 
	C232.655548,145.411545 225.202957,143.673187 218.712296,146.450638 
	C212.499069,149.109360 208.952347,153.968445 208.501587,160.654434 
	C208.006882,167.992325 211.336411,173.449677 218.551834,177.180588 
M173.109680,179.471558 
	C166.044113,172.390015 157.509369,171.366638 150.314377,176.738281 
	C143.609055,181.744370 141.682556,190.898621 145.814453,198.120697 
	C150.453247,206.228760 160.688889,208.981201 168.692108,204.272659 
	C177.135376,199.305191 179.166214,189.246948 173.109680,179.471558 
z"/>
<path fill="#FDC001" opacity="1.000000" stroke="none" 
	d="
M307.913971,197.560333 
	C314.610291,196.173355 318.344543,199.494354 321.143005,205.254608 
	C323.792145,197.564545 328.434937,194.409637 335.866638,194.662750 
	C346.018372,195.008545 356.190857,194.717773 366.354126,194.763535 
	C371.553284,194.786942 377.262177,202.239197 375.807037,207.204056 
	C359.958282,261.279022 344.077118,315.344513 328.177460,369.404572 
	C326.950745,373.575439 322.144379,377.285583 317.879364,377.310303 
	C306.383331,377.376923 294.886353,377.382416 283.390381,377.311676 
	C277.707336,377.276703 276.462280,371.929779 274.498474,368.408234 
	C273.572144,366.747101 275.809143,362.614624 277.555176,360.318604 
	C281.126251,355.622681 286.613159,356.369965 291.780121,356.407715 
	C303.312714,356.491974 303.351196,356.445190 306.545624,345.530518 
	C318.685150,304.052002 330.800690,262.566437 342.909485,221.078949 
	C343.363373,219.523834 343.654358,217.921173 344.035706,216.278549 
	C336.581848,214.562851 327.062012,219.857483 323.620667,210.183792 
	C318.616028,212.181503 314.051758,214.383347 309.255798,215.801773 
	C305.161621,217.012650 303.182678,219.805939 302.061279,223.371292 
	C298.471893,234.783447 294.969696,246.225601 291.631653,257.713654 
	C285.880859,277.505371 280.276459,297.339600 274.624573,317.159973 
	C274.404724,317.930847 274.329254,318.742920 274.109009,319.966370 
	C278.097473,321.192383 283.142914,320.485504 284.817230,325.622925 
	C285.630219,328.117401 287.921509,331.914581 287.072388,332.830078 
	C284.571228,335.526825 280.905884,338.654877 277.570221,338.804474 
	C263.270142,339.445892 248.924774,339.083923 234.595917,339.074280 
	C231.272278,339.072052 224.569336,332.807343 224.142639,329.346466 
	C223.838364,326.878479 229.537567,321.039612 233.199371,321.249420 
	C240.178452,321.649261 242.424698,317.511566 244.039688,311.968536 
	C247.566971,299.862122 251.249496,287.800964 254.974655,275.367218 
	C240.224472,275.367218 225.968536,275.367218 210.955154,275.367218 
	C206.756439,289.839813 202.481567,304.574890 197.896805,320.378174 
	C204.985275,319.732208 208.372559,323.459930 211.357498,328.023834 
	C213.069290,330.641113 212.726578,332.668091 210.577499,334.589569 
	C207.459305,337.377594 204.324600,339.374146 199.585220,339.226227 
	C186.102585,338.805298 172.598267,339.083679 159.102493,339.075104 
	C155.468384,339.072784 148.550156,332.504395 148.504715,329.046021 
	C148.470398,326.436005 154.168533,321.032104 157.811783,321.206665 
	C164.155563,321.510681 166.596588,318.067505 168.160049,312.699738 
	C176.898300,282.698669 185.783783,252.740479 194.559601,222.750275 
	C195.151138,220.728775 195.255325,218.564667 195.648270,216.073151 
	C191.146683,215.826309 186.848297,215.635010 185.019241,210.914398 
	C184.064011,208.449036 181.728119,204.555252 182.521896,203.736618 
	C185.102554,201.075211 188.732788,198.085403 192.150848,197.834381 
	C202.425598,197.079803 212.791107,197.561096 223.121216,197.560394 
	C226.286896,197.560181 229.554352,198.068542 232.597916,197.458893 
	C239.843750,196.007462 242.718811,201.058350 245.548477,205.856827 
	C246.213791,206.985016 245.424484,210.135529 244.299316,210.927124 
	C241.427246,212.947708 237.927826,214.050278 234.795624,215.736069 
	C232.436996,217.005508 228.973572,218.125565 228.213394,220.144714 
	C224.080383,231.122711 220.633881,242.359177 216.730377,254.174713 
	C231.351761,254.174713 244.829559,254.226318 258.305054,254.074112 
	C259.353394,254.062286 261.025848,252.816055 261.327454,251.817184 
	C264.828613,240.222031 268.121613,228.564041 271.859863,215.566559 
	C264.001282,217.506699 261.046204,212.566544 258.195435,208.000504 
	C257.365082,206.670547 257.563293,203.507050 258.592743,202.435852 
	C261.423035,199.490601 264.664551,197.283722 269.443695,197.429565 
	C282.094604,197.815582 294.765106,197.560364 307.913971,197.560333 
z"/>
<path fill="#FDC001" opacity="1.000000" stroke="none" 
	d="
M225.032043,20.810741 
	C229.019180,24.497843 229.421799,28.351629 228.083099,33.201576 
	C225.341492,43.134068 223.156860,53.225136 220.924118,63.291103 
	C219.888428,67.960342 216.170273,69.902267 212.600632,71.831367 
	C211.615204,72.363899 209.217804,71.578224 208.248627,70.613472 
	C204.772446,67.153145 201.755066,63.914413 202.684174,57.790554 
	C204.160889,48.057419 197.388702,40.628212 186.988632,39.030914 
	C170.821869,36.547935 156.827942,41.208054 145.801071,53.198689 
	C128.912308,71.563522 121.495590,93.356606 126.053192,118.067230 
	C130.230774,140.717468 145.923203,147.527039 167.577820,141.100922 
	C168.797455,140.738968 170.350647,139.537674 170.672577,138.417755 
	C173.886810,127.235939 176.880432,115.990601 179.905914,104.755013 
	C180.022797,104.320938 179.833008,103.804276 179.759064,103.050323 
	C178.513947,102.732994 177.159866,101.933739 176.024765,102.173073 
	C169.204132,103.611176 166.589340,98.577240 163.862015,94.158905 
	C163.086029,92.901833 163.275864,89.886330 164.250931,88.931808 
	C167.011642,86.229301 169.847305,83.657013 174.506699,83.754951 
	C189.498352,84.070099 204.500824,83.866524 219.499115,83.876465 
	C223.132278,83.878876 229.777161,89.824211 230.116898,93.334244 
	C230.389328,96.148781 224.802750,101.933449 220.973206,101.886337 
	C214.751404,101.809814 212.167038,105.084183 210.641602,110.545815 
	C207.243271,122.713287 203.448730,134.769547 199.954361,146.911041 
	C198.568115,151.727661 195.762299,154.910706 191.123550,156.918488 
	C173.534302,164.531708 155.441010,167.171844 136.492249,163.402008 
	C103.503815,156.838959 88.502022,127.341805 90.585251,101.046684 
	C94.585403,50.555580 137.921539,13.829698 188.318146,18.198069 
	C195.823578,18.848637 203.158936,21.460981 210.856064,23.230848 
	C216.999710,16.898123 220.732361,16.082296 225.032043,20.810741 
z"/>
<path fill="#FDC001" opacity="1.000000" stroke="none" 
	d="
M356.977661,71.856720 
	C366.905090,74.965141 368.460480,81.278984 360.966888,87.930473 
	C354.000183,94.114281 346.692230,99.920837 339.409515,105.736938 
	C337.251801,107.460106 336.315887,109.048317 336.773376,112.006065 
	C338.222351,121.373337 339.260681,130.804184 340.454163,140.210892 
	C340.942871,144.062729 340.368439,147.603897 336.935822,149.970886 
	C333.376801,152.425049 329.898926,151.173141 326.677216,149.170868 
	C318.909637,144.343292 311.110565,139.552811 303.539917,134.428696 
	C300.585327,132.428925 298.333038,132.090469 295.037598,133.812408 
	C286.944946,138.041046 278.596222,141.782440 270.324677,145.664734 
	C266.654236,147.387451 262.945374,147.902939 259.577423,144.995605 
	C256.308197,142.173508 256.665192,138.527512 257.599243,134.851379 
	C259.849396,125.995354 262.010986,117.113449 264.479553,108.318123 
	C265.337769,105.260345 265.011627,103.157906 262.663361,100.813606 
	C256.185822,94.347031 249.970505,87.615112 243.729416,80.915535 
	C240.900620,77.878922 238.798431,74.485191 240.762177,70.116676 
	C242.626236,65.969902 246.525253,65.362587 250.377899,65.084755 
	C258.846069,64.474075 267.323578,63.879898 275.807373,63.646564 
	C280.065796,63.529446 282.603790,62.197456 284.549225,58.084408 
	C288.309082,50.135178 292.826080,42.541237 297.099609,34.839077 
	C298.971344,31.465708 301.606018,28.946669 305.767120,29.096781 
	C310.100891,29.253120 312.106873,32.449295 313.525055,35.918266 
	C316.855988,44.065792 320.243591,52.205338 323.119659,60.517178 
	C324.549255,64.648689 326.790894,66.442429 331.091064,67.069206 
	C339.636261,68.314713 348.092285,70.171593 356.977661,71.856720 
z"/>
<path fill="#FCC001" opacity="1.000000" stroke="none" 
	d="
M44.119617,50.120296 
	C46.506859,41.915604 48.792072,34.101933 51.106644,26.296963 
	C52.576637,21.340015 57.333500,17.693029 62.466656,17.675756 
	C73.457397,17.638773 84.448364,17.651423 95.439186,17.672052 
	C98.642906,17.678066 105.169502,22.813097 105.237694,26.654648 
	C105.287758,29.475018 103.303650,32.666862 101.454300,35.108616 
	C98.528435,38.971725 93.981827,38.715694 89.577339,38.615170 
	C85.274025,38.516953 79.839066,37.271832 76.972099,39.365883 
	C74.155464,41.423161 73.813202,47.007721 72.607895,51.109859 
	C60.523895,92.236595 48.484615,133.376480 36.440937,174.515045 
	C36.072548,175.773376 35.793182,177.057739 35.272301,179.123001 
	C39.898666,179.123001 44.120476,179.094421 48.341667,179.133087 
	C51.146671,179.158768 57.815308,184.583405 57.773678,187.966721 
	C57.737442,190.912338 56.142216,194.212723 54.311485,196.666748 
	C52.071892,199.668808 48.543549,200.537369 44.557823,200.429733 
	C34.240597,200.151077 23.910759,200.361862 13.586136,200.325912 
	C7.853231,200.305939 2.351998,192.858261 3.972637,187.319229 
	C17.315762,141.715088 30.675394,96.115776 44.119617,50.120296 
z"/>
<path fill="#FCC001" opacity="1.000000" stroke="none" 
	d="
M104.141617,286.257507 
	C105.964188,294.032959 103.582901,298.108887 96.208733,297.705750 
	C88.114220,297.263214 83.134056,299.813995 80.367386,307.466583 
	C79.021904,311.188171 75.524879,313.747589 71.739304,312.657471 
	C69.074417,311.890106 65.851814,309.059509 65.076546,306.487488 
	C62.838116,299.061432 59.196110,294.499084 50.824883,294.451965 
	C46.901318,294.429932 44.090218,291.840973 42.996735,287.883698 
	C41.861450,283.775208 44.494698,281.379028 47.184319,279.044250 
	C47.435425,278.826294 47.667480,278.566895 47.954567,278.412720 
	C53.925613,275.206573 56.343483,270.618835 54.135422,263.829132 
	C53.549812,262.028381 53.711243,259.807678 54.105980,257.898987 
	C55.208817,252.566360 60.851078,249.576324 65.194412,253.055481 
	C72.783813,259.134827 79.544083,259.284271 87.909103,254.680389 
	C93.187523,251.775284 98.507324,256.590912 98.091370,262.733124 
	C98.068909,263.064789 98.132240,263.450104 97.986519,263.718719 
	C92.938744,273.023041 97.221710,279.796936 104.141617,286.257507 
z"/>
<path fill="#FBBF02" opacity="1.000000" stroke="none" 
	d="
M218.189026,177.063004 
	C211.336411,173.449677 208.006882,167.992325 208.501587,160.654434 
	C208.952347,153.968445 212.499069,149.109360 218.712296,146.450638 
	C225.202957,143.673187 232.655548,145.411545 237.432571,150.635040 
	C242.302155,155.959732 243.236038,163.885223 239.729996,170.133041 
	C236.328079,176.195358 229.338196,179.491028 222.369003,178.252716 
	C221.073990,178.022598 219.823090,177.544327 218.189026,177.063004 
z"/>
<path fill="#FBBF02" opacity="1.000000" stroke="none" 
	d="
M173.347260,179.755905 
	C179.166214,189.246948 177.135376,199.305191 168.692108,204.272659 
	C160.688889,208.981201 150.453247,206.228760 145.814453,198.120697 
	C141.682556,190.898621 143.609055,181.744370 150.314377,176.738281 
	C157.509369,171.366638 166.044113,172.390015 173.347260,179.755905 
z"/>
</svg>