<?xml version="1.0" encoding="UTF-8" standalone="no"?>
<!-- Created with Inkscape (http://www.inkscape.org/) -->

<svg
   width="99.999992mm"
   height="100mm"
   viewBox="0 0 99.999992 100"
   version="1.1"
   id="svg1"
   xmlns:inkscape="http://www.inkscape.org/namespaces/inkscape"
   xmlns:sodipodi="http://sodipodi.sourceforge.net/DTD/sodipodi-0.dtd"
   xmlns="http://www.w3.org/2000/svg"
   xmlns:svg="http://www.w3.org/2000/svg">
  <sodipodi:namedview
     id="namedview1"
     pagecolor="#ffffff"
     bordercolor="#000000"
     borderopacity="0.25"
     inkscape:showpageshadow="2"
     inkscape:pageopacity="0.0"
     inkscape:pagecheckerboard="0"
     inkscape:deskcolor="#d1d1d1"
     inkscape:document-units="mm" />
  <defs
     id="defs1">
    <rect
       x="167.85341"
       y="404.64661"
       width="298.23953"
       height="289.24741"
       id="rect2" />
    <rect
       x="167.85341"
       y="404.64661"
       width="298.23953"
       height="289.24741"
       id="rect2-6" />
    <rect
       x="167.85341"
       y="404.64661"
       width="298.23953"
       height="289.24741"
       id="rect2-1" />
  </defs>
  <g
     inkscape:label="Capa 1"
     inkscape:groupmode="layer"
     id="layer1"
     transform="translate(-33.308411,-91.994657)">
    <rect
       style="fill:#003278;fill-opacity:1;stroke:none;stroke-width:3.3227;stroke-linejoin:bevel;stroke-miterlimit:0;stroke-dashoffset:3.10979;stroke-opacity:1"
       id="rect1"
       width="100"
       height="100"
       x="33.308411"
       y="91.994659"
       rx="2.2506878e-17"
       inkscape:export-filename="favicon.ico"
       inkscape:export-xdpi="8.1280003"
       inkscape:export-ydpi="8.1280003" />
    <text
       xml:space="preserve"
       transform="matrix(0.26458333,0,0,0.26458333,-20.19891,-13.108023)"
       id="text1"
       style="font-size:192px;line-height:1;font-family:'Times New Roman';-inkscape-font-specification:'Times New Roman, ';text-align:center;letter-spacing:1px;word-spacing:0.02px;writing-mode:tb-rl;text-orientation:upright;white-space:pre;shape-inside:url(#rect2);fill:#ffc100;fill-opacity:1;stroke:#ffc100;stroke-width:14.4567;stroke-linejoin:bevel;stroke-miterlimit:0;stroke-dashoffset:3.10979;stroke-opacity:1"><tspan
         x="209.78613"
         y="551.11859"
         id="tspan5"><tspan
           style="font-style:italic;-inkscape-font-specification:'Times New Roman,  Italic';writing-mode:lr-tb"
           id="tspan4">[G</tspan></tspan></text>
    <text
       xml:space="preserve"
       transform="matrix(0.16935966,0.20327726,-0.20327726,0.16935966,134.11992,-12.229633)"
       id="text1-7"
       style="font-size:192px;line-height:1;font-family:'Times New Roman';-inkscape-font-specification:'Times New Roman, ';text-align:center;letter-spacing:1px;word-spacing:0.02px;writing-mode:tb-rl;text-orientation:upright;white-space:pre;shape-inside:url(#rect2-1);fill:#ffc100;fill-opacity:1;stroke:#ffc100;stroke-width:14.4567;stroke-linejoin:bevel;stroke-miterlimit:0;stroke-dashoffset:3.10979;stroke-opacity:1"><tspan
         x="285.00488"
         y="551.11859"
         id="tspan7"><tspan
           style="font-style:italic;-inkscape-font-specification:'Times New Roman,  Italic';writing-mode:lr-tb"
           id="tspan6">:</tspan></tspan></text>
    <text
       xml:space="preserve"
       transform="matrix(0.26458333,0,0,0.26458333,19.89124,33.721048)"
       id="text1-1"
       style="font-size:192px;line-height:1;font-family:'Times New Roman';-inkscape-font-specification:'Times New Roman, ';text-align:center;letter-spacing:1px;word-spacing:0.02px;writing-mode:tb-rl;text-orientation:upright;white-space:pre;shape-inside:url(#rect2-6);fill:#ffc100;fill-opacity:1;stroke:#ffc100;stroke-width:14.4567;stroke-linejoin:bevel;stroke-miterlimit:0;stroke-dashoffset:3.10979;stroke-opacity:1"><tspan
         x="209.78613"
         y="551.11859"
         id="tspan9"><tspan
           style="font-style:italic;-inkscape-font-specification:'Times New Roman,  Italic';writing-mode:lr-tb"
           id="tspan8">H]</tspan></tspan></text>
    <path
       sodipodi:type="star"
       style="fill:#ffc100;fill-opacity:1;stroke:#ffc100;stroke-width:3.825;stroke-linejoin:bevel;stroke-miterlimit:0;stroke-dashoffset:3.10979;stroke-opacity:1"
       id="path2"
       inkscape:flatsided="false"
       sodipodi:sides="5"
       sodipodi:cx="113.40721"
       sodipodi:cy="113.40721"
       sodipodi:r1="15.510305"
       sodipodi:r2="7.7551494"
       sodipodi:arg1="1.0040671"
       sodipodi:arg2="1.6323856"
       inkscape:rounded="0.05"
       inkscape:randomized="0"
       d="m 121.73431,126.49266 c -0.43448,0.27649 -8.29041,-5.31331 -8.80443,-5.345 -0.51402,-0.0317 -8.99724,4.5505 -9.39445,4.22272 -0.39722,-0.32777 2.49137,-9.52656 2.36268,-10.02521 -0.1287,-0.49865 -7.108086,-7.1507 -6.919099,-7.62976 0.188986,-0.47906 9.830169,-0.57443 10.264649,-0.85092 0.43448,-0.27649 4.6042,-8.969874 5.11822,-8.938176 0.51401,0.0317 3.584,9.171536 3.98122,9.499316 0.39722,0.32777 9.95363,1.60701 10.08233,2.10566 0.12869,0.49866 -7.61513,6.24276 -7.80412,6.72182 -0.18899,0.47906 1.54748,9.96306 1.113,10.23955 z"
       inkscape:transform-center-x="-0.29391482"
       inkscape:transform-center-y="-1.1928055"
       transform="translate(-0.56077627,3.3646576)" />
    <path
       sodipodi:type="star"
       style="fill:#ffc100;fill-opacity:1;stroke:#ffc100;stroke-width:3.825;stroke-linejoin:bevel;stroke-miterlimit:0;stroke-dashoffset:3.10979;stroke-opacity:1"
       id="path3"
       inkscape:flatsided="false"
       sodipodi:sides="5"
       sodipodi:cx="52.341789"
       sodipodi:cy="166.93858"
       sodipodi:r1="6.7526407"
       sodipodi:r2="3.3763187"
       sodipodi:arg1="-0.8685394"
       sodipodi:arg2="-0.24022086"
       inkscape:rounded="0.05"
       inkscape:randomized="0"
       d="m 56.703605,161.78371 c 0.171159,0.14483 -1.13579,4.13382 -1.082447,4.35159 0.05334,0.21777 3.05593,3.15114 2.971082,3.35867 -0.08485,0.20754 -4.282472,0.19722 -4.473101,0.31525 -0.19063,0.11803 -2.052577,3.88012 -2.276174,3.86355 -0.223598,-0.0166 -1.510924,-4.01192 -1.682083,-4.15675 -0.171158,-0.14483 -4.324491,-0.7531 -4.377834,-0.97087 -0.05334,-0.21777 3.34867,-2.67673 3.433517,-2.88426 0.08485,-0.20754 -0.620106,-4.34556 -0.429476,-4.46358 0.190629,-0.11803 3.580515,2.35762 3.804112,2.37418 0.223598,0.0166 3.941245,-1.93261 4.112404,-1.78778 z"
       inkscape:transform-center-x="0.15357398"
       inkscape:transform-center-y="0.49443735"
       transform="translate(0.4205822,-0.98135848)" />
  </g>
</svg>
