<?xml version="1.0" encoding="UTF-8" standalone="no"?>
<!-- Created with Inkscape (http://www.inkscape.org/) -->

<svg
   width="62.217892mm"
   height="62.217892mm"
   viewBox="0 0 62.217892 62.217892"
   version="1.1"
   id="svg1"
   xmlns="http://www.w3.org/2000/svg"
   xmlns:svg="http://www.w3.org/2000/svg">
  <defs
     id="defs1" />
  <g
     id="layer1"
     transform="translate(-54.0403,-111.25982)">
    <rect
       style="fill:none;fill-opacity:1;stroke:none;stroke-width:0.13611;stroke-opacity:1"
       id="rect407"
       width="62.217892"
       height="62.217892"
       x="54.040298"
       y="111.25983" />
    <path
       style="fill:#000000;fill-opacity:0.117478;stroke:#000000;stroke-width:0.151;stroke-dasharray:0.604, 0.151;stroke-dashoffset:0;stroke-opacity:1"
       d="m 85.081279,141.25982 -20.784611,12 20.784611,12 20.784601,-12 -10.392295,-6 -6.928207,4 5.196152,3 -6.928202,4 -10.392304,-6 13.856407,-8 z"
       id="path406-4" />
    <path
       style="fill:#ffffff;fill-opacity:0.240688;stroke:#000000;stroke-width:0.151;stroke-dasharray:0.603999, 0.151;stroke-dashoffset:0;stroke-opacity:1"
       d="m 64.296668,129.25982 v 24 l 6.928201,-4 v -8 l 6.928202,-4 v 8 l 6.928202,-4 v -24 l -6.928202,4 v 10 l -6.928202,4 v -10 z"
       id="path417-0" />
    <path
       style="fill:#000000;stroke:#000000;stroke-width:0.151;stroke-opacity:1"
       d="m 85.081276,117.25982 -20.784611,12 20.784611,12 20.784604,-12 -10.3923,-6 -6.928205,4 5.196152,3 -6.928202,4 -10.392304,-6 13.856407,-8 z"
       id="path406" />
    <path
       style="fill:none;fill-opacity:1;stroke:#002caf;stroke-width:0.151;stroke-dasharray:0.604, 0.151;stroke-dashoffset:0;stroke-opacity:1"
       d="m 64.296665,129.25982 v 24 l 20.784611,12 20.784604,-12 v -24 l -20.784604,-12 z"
       id="path416" />
    <path
       style="fill:#ffffff;fill-opacity:1;stroke:#000000;stroke-width:0.151;stroke-opacity:1"
       d="m 69.492817,138.25982 -3.4641,-2 v 6 l 3.4641,2 v -4 l -1.73205,-1 -0.02445,2.08718 0.02445,-2.08718 1.73205,1 z"
       id="path408" />
    <path
       style="fill:#ffffff;fill-opacity:1;stroke:#000000;stroke-width:0.151;stroke-opacity:1"
       d="m 69.492817,144.25982 v -6 l 3.464102,2 v 6 l -1.73205,-1 v -2 2 z"
       id="path409" />
    <path
       style="fill:#ffffff;fill-opacity:1;stroke:#000000;stroke-width:0.151;stroke-opacity:1"
       d="m 72.956919,146.25982 v -6 l 5.196152,3 v 6 l -1.73205,-1 v -4 4 l -1.732052,-1 v -4 4 z"
       id="path410" />
    <path
       style="fill:#ffffff;fill-opacity:1;stroke:#000000;stroke-width:0.151;stroke-opacity:1"
       d="m 78.153071,143.25982 3.464102,2 v 2 l -1.732052,-1 1.732052,1 v 2 l -1.732052,-1 1.732052,1 v 2 l -3.464102,-2 z"
       id="path411" />
    <path
       style="fill:#ffffff;fill-opacity:1;stroke:#000000;stroke-width:0.151;stroke-opacity:1"
       d="m 66.028717,142.25982 v 6 l 1.73205,1 v -2 2 l 1.73205,1 v -6 l -1.73205,-1 v 2 -2 z"
       id="path412" />
    <path
       style="fill:#ffffff;fill-opacity:1;stroke:#000000;stroke-width:0.151;stroke-opacity:1"
       d="m 69.492817,150.25982 3.464102,2 v -6 l -3.464102,-2 z"
       id="path413" />
    <path
       style="fill:#ffffff;fill-opacity:1;stroke:#000000;stroke-width:0.151;stroke-opacity:1"
       d="m 71.224869,147.25982 v 2 z"
       id="path414" />
    <path
       style="fill:#ffffff;fill-opacity:1;stroke:#000000;stroke-width:0.151;stroke-opacity:1"
       d="m 72.956919,152.25982 v -6 l 1.73205,1 v 4 -4 l 1.732052,1 v 6 z"
       id="path415" />
    <path
       style="fill:#ffffff;fill-opacity:1;stroke:#000000;stroke-width:0.151;stroke-dasharray:0.603999, 0.151;stroke-dashoffset:0;stroke-opacity:0"
       d="m 85.081276,141.25982 v 24 l 6.928201,-4 v -8 l 6.928202,-4 v 8 l 6.928201,-4 v -24 l -6.928201,4 v 10 l -6.928202,4 v -10 z"
       id="path417" />
    <path
       style="fill:#ffffff;fill-opacity:0.240688;stroke:#000000;stroke-width:0.151;stroke-dasharray:0.603999, 0.151;stroke-dashoffset:0;stroke-opacity:1"
       d="m 71.224869,141.25982 v 0"
       id="path418" />
    <path
       style="fill:#ffffff;fill-opacity:0.240688;stroke:#000000;stroke-width:0.151;stroke-dasharray:0.603999, 0.151;stroke-dashoffset:0;stroke-opacity:1"
       d="M 71.224869,141.25982 Z"
       id="path419" />
  </g>
</svg>
